<?xml version="1.0" encoding="UTF-8"?><svg id="Layer_1" xmlns="http://www.w3.org/2000/svg" viewBox="0 0 1080 1080"><defs><style>.cls-1{fill:#fee673;}.cls-2{fill:#fefefe;}.cls-3{fill:#fdfdfd;}.cls-4{fill:#fed100;}.cls-5{fill:#737fa8;}.cls-6{fill:#98a0bf;}.cls-7{fill:#9fa7c3;}.cls-8{fill:#939dbd;}.cls-9{fill:#babfd4;}.cls-10{fill:#aeb5cd;}.cls-11{fill:#bbc0d5;}.cls-12{fill:#bdc2d6;}.cls-13{fill:#bdc3d7;}.cls-14{fill:#dde0e9;}.cls-15{fill:#d3d8e4;}.cls-16{fill:#d3d6e3;}.cls-17{fill:#1f3375;}.cls-18{fill:#42538b;}.cls-19{fill:#41528a;}.cls-20{fill:#1b2f73;}.cls-21{fill:#44558c;}.cls-22{fill:#3f5089;}.cls-23{fill:#3d4e87;}.cls-24{fill:#8993b6;}.cls-25{fill:#45568d;}.cls-26{fill:#46558d;}.cls-27{fill:#62709e;}.cls-28{fill:#5b699a;}.cls-29{fill:#64719f;}.cls-30{fill:#48588f;}.cls-31{fill:#48588e;}.cls-32{fill:#3c4d87;}.cls-33{fill:#3b4d87;}.cls-34{fill:#3b4c86;}.cls-35{fill:#394a85;}.cls-36{fill:#828db2;}.cls-37{fill:#4c5c91;}.cls-38{fill:#5e6d9c;}.cls-39{fill:#7682ab;}.cls-40{fill:#7783ac;}.cls-41{fill:#4b5b90;}.cls-42{fill:#506093;}.cls-43{fill:#273a7a;}.cls-44{fill:#7984ac;}</style></defs><path class="cls-3" d="M1079.91,816.95c0,86.13-.03,172.26,.09,258.39,0,3.64-.64,4.66-4.52,4.66-356.85-.11-713.69-.11-1070.54,0-3.92,0-4.93-.6-4.93-4.79C.13,813.49,.12,551.76,.12,290.04c2.89-.52,4.05,1.94,5.58,3.47,18.63,18.58,37.3,37.11,55.8,55.82,.34,.34,.62,.76,1.35,.81,6.53-6.69,13.34-13.27,19.94-20.07,.88-.9,1.41-2.37,3.08-2.18,1.11,.72,1.32,1.87,1.45,3.04,1.16,10.69,4.06,20.93,8.33,30.75,1.74,4,1.03,6.65-2.21,9.59-6.89,6.25-8.53,16.62-2.89,23.46,9.95,12.06,15.8,26.15,21.89,40.2,3.98,9.18,8.3,18.19,13.67,26.64,2.21,3.48,2.29,6.61,.22,10.24-4.29,7.5-3.45,14.71,2.17,21.26,9.79,11.4,18.2,23.81,26.42,36.34,8.26,12.59,17.51,24.33,28.59,34.55,3.6,3.32,5.01,6.84,4.27,11.93-1.09,7.53,1.7,14,8.72,17.59,16.37,8.36,30.86,19.73,46.8,28.76,3.12,1.77,4.88,4.18,5.23,7.9,.82,8.62,5.69,13.94,14.04,16.11,16.81,4.36,32.68,11.46,49.03,17.16,7.24,2.52,14.41,5.23,21.99,6.58,3.97,.7,7,2.44,9.25,6.03,3.99,6.37,10.23,7.89,17.37,7.4,10.42-.71,20.78-2.42,31.31-.96,7.79,1.08,15.6-.6,23.4-1.11,2.95-.19,5.49,.06,8.1,1.57,4.49,2.59,9.39,3.26,14.48,2,3.24-.8,6.5-1.51,9.78-2.06,2.21-.37,4.95-1.92,6.55,.3,1.36,1.89-.6,4.07-1.44,6.01-5.22,12.03-7.26,24.51-5.35,37.56,1.04,7.12,2.93,14,5.6,20.69,3.45,8.67,6.57,17.43,7.86,26.76,.8,5.75,3.64,10.3,8.99,13.03,2.37,1.21,3.64,3.32,4.44,5.78,4.39,13.54,11.16,25.98,17.89,38.44,3.58,6.63,8,12.29,15.98,13.96,2.6,.55,4.08,2.66,5.62,4.68,7.38,9.69,15.6,18.64,24.37,27.07,5.51,5.3,12.26,6.27,19.5,3.71,6.5-2.3,9.71-7.19,10.96-13.7,.49-2.55,0-4.98-.58-7.41-.97-4.1-1.15-8.23-.93-12.41,.14-2.75,1.19-4.13,4.32-4.1,10.24,.11,16.98-5.57,18.71-14.54,.88-4.57,3.98-8.01,7.26-11.15,6.15-5.89,11.8-12.21,16.71-19.18,6.42-9.13,10.76-19.15,12.67-30.15,.48-2.75,1.37-5.1,3.65-6.83,4.06-3.08,5.89-7.63,5.68-12.29-.61-13.53,.81-26.92,1.89-40.34,.53-6.53-.56-12.93-2.07-19.29-1.06-4.46-.19-5.35,4.42-5.15,3.27,.14,6.45-.39,9.13-2.07,3.7-2.33,7.39-2.26,11.48-1.63,8.22,1.27,16.5,1.99,24.84,2.02,9.84,.04,19.58,1.32,29.31,2.6,3.82,.5,7.56,.79,11.39-.17,5.02-1.26,8.82-3.89,10.94-8.64,1.31-2.93,3.27-4.94,6.45-5.72,14.94-3.64,28.91-10.1,43.36-15.16,2.04-.71,4-1.72,6.26-1.41,2.72,.81,4.26,3.11,6.12,4.97,71.19,71.15,142.35,142.32,213.52,213.49q4.63,4.63,9.19,.09c17.44-17.44,34.86-34.9,52.35-52.28,1.54-1.53,2.7-3.99,5.59-3.47Z"/><path class="cls-2" d="M85.26,327.69c-.23,2.84-2.57,4.18-4.28,5.92-5.13,5.24-10.48,10.26-15.47,15.63-2.28,2.45-3.58,2.25-5.85-.05-18.4-18.59-36.94-37.05-55.45-55.53-1.29-1.28-2.73-2.41-4.1-3.62,0-62.99,0-125.98,0-188.97,1.1-2.07,2.59-3.81,4.25-5.46C34.81,65.21,65.23,34.79,95.64,4.35c1.66-1.66,3.4-3.15,5.46-4.25C425.87,.09,750.64,.1,1075.41,0c3.75,0,4.59,.84,4.59,4.59-.1,270.78-.09,541.57-.09,812.35-1.37,1.2-2.81,2.33-4.09,3.62-18.51,18.47-37.03,36.93-55.43,55.51-2.23,2.25-3.45,2.49-5.84,.1-72.72-72.85-145.51-145.62-218.28-218.43-.92-.92-1.61-2.08-2.41-3.13,.91-2.47,3.33-2.57,5.3-3.16,5.42-1.62,10.83-3.29,16.37-4.45,8.55-1.78,14.7-6.05,16.41-15.17,.95-1.81,.52-3.96,1.39-5.79,7.28-6.37,15.64-11.2,23.7-16.44,8.64-5.62,17.34-11.14,26.47-16,7.33-3.89,10.35-10.79,8.66-18.95-.8-3.85-.13-6.46,2.86-9.19,14.37-13.09,26.27-28.2,35.94-45.09,5.73-10.01,13.27-18.7,20.87-27.32,5.8-6.57,6.13-13.8,2.28-21.28-1.53-2.97-1.69-5.4-.15-8.41,5.99-11.72,10.73-24,15.65-36.18,4.46-11.05,10.22-21.26,17.4-30.73,7.71-10.17,7.52-17.44-.64-27.22-1.11-1.33-2.21-2.59-1.53-4.43,3.41-9.24,5.08-18.93,7.22-28.5,1.01-3.39,.28-6.88,.56-10.31,.04-.85,.18-1.69,.39-2.52,1.11-6.37,.31-12.79,.47-19.18-.11-2.05,.02-4.08,.38-6.1,1.19-3.83,.52-7.77,.67-11.66,.66-16.27,5.41-31.02,15.98-43.71,6.37-7.65,5.83-18.59-.97-24.94-7.64-7.14-18-7.22-25.46,.59-11.39,11.9-22.42,24.15-33.71,36.14-9.81,10.42-19.69,20.78-29.19,31.49-7.73,8.71-15.94,17-24.1,25.32-19.81,20.18-42,37.43-64.96,53.75-16.83,11.96-33.78,23.73-52.03,33.55-13.41,7.22-27.4,13.03-41.72,17.93-14.35,4.92-28.58,10.04-42.6,15.82-2.14,.88-4.95,3.2-6.77,.91-1.64-2.07,1.24-4.12,2.44-5.98,4.04-6.29,5.15-13.31,5.16-20.54,.06-36.31,.03-72.62,.03-108.94,0-3.33,0-6.66,0-9.99,.02-8.15,.72-9.18,6.23-9.22,5.66-.04,6.47,1.05,6.47,9.01,.01,31.31,0,62.63,0,93.94,0,1.83-.05,3.67,.05,5.5,.86,16.38,16.48,25.56,29.09,20.44,12.02-4.88,23.98-10.01,35.33-16.33,7.52-4.19,10.99-11.32,12.33-19.61,.51-1.63,.41-3.31,.41-4.97,.01-46.48,.01-92.96,0-139.44,0-1.5,.09-3-.28-4.46-1.35-6.92-4.38-12.79-10.22-17.09-4.05-2.98-9.02-3.23-13.51-4.88-10.93-.77-21.85-.31-32.77-.22-12.52-.16-25.04,.55-37.55-.37-5.02-1.44-10.16-.66-15.25-.74-7.75-.12-15.5-.06-23.24,0-3.66,.16-7.33-.17-10.98,.06-7.46,.47-14.39,2.03-19.82,7.97-3.62,3.96-4.96,3.85-8.4-.35-4.63-5.64-10.33-8.62-17.57-9.16-10.65-.81-21.34-1.18-31.92-.01-15.44,1.71-22.45,10.04-22.55,25.63-.1,16.16-.02,32.31-.03,48.47,0,1.67,.05,3.33-.07,5-.12,1.66-.19,3.36-1.66,4.54-6.19,1.25-12.38,1.39-18.56-.07-2.13-2.17-1.64-4.96-1.65-7.57-.06-16.82,0-33.65-.05-50.47-.02-8.01-2.26-15.06-8.76-20.36-2.95-2.41-6.18-3.8-9.88-4.43-11.59-1.99-23.26-1.28-34.89-.82-6.84,.27-13.01,2.61-17.46,8.35-2.13,2.75-4.87,3.28-7.04,.25-5.7-7.96-14.12-8.85-22.74-8.89-30.98-.14-61.97,0-92.95-.06-2.43-.11-4.88-.39-7.26,.39-5.3,1.35-10.39,2.92-14.72,6.66-8.21,7.1-11.17,16.06-10.37,26.58,.02,2.5-.27,5.02,.47,7.48,1.5,9.25,6.62,17.02,10.41,25.32,6.29,13.78,13.35,27.19,20.09,40.76,1.75,3.53,1.22,6.27-1.13,9.14-8.46,10.31-15.49,21.72-24.06,31.91-10.18,12.11-11.4,25.74-8.72,40.44,.4,2.18,2.56,4.96,.4,6.5-2.3,1.64-4.61-1.02-6.62-2.28-28.95-18.18-56.72-37.94-82.6-60.36-18.81-16.3-35.34-34.73-52.06-53.04-9.98-10.94-20.24-21.64-30.35-32.46-7.5-8.02-15.06-15.99-22.32-24.24-6.27-7.13-16.67-9.08-25.07-4.69-8.47,4.43-11.3,16.72-5.07,25.26,9.89,13.57,13.76,29.01,15.63,45.25-.04,1.78,.11,3.54,.68,5.25,.39,1.85,.41,3.72,.43,5.6-.09,2.45-.2,4.89,.61,7.27,.44,2.23,.43,4.48,.43,6.74,0,4.2-.48,8.41,.41,12.58,.25,1.44,.34,2.86-.7,4.08Z"/><path class="cls-3" d="M101.1,.09c-.85,1.01-1.62,2.1-2.56,3.03C66.76,34.94,34.96,66.73,3.15,98.52c-.93,.93-2.02,1.71-3.03,2.56,0-32.41,.05-64.83-.08-97.24C.02,.72,.74,0,3.86,.01,36.27,.14,68.69,.09,101.1,.09Z"/><path class="cls-4" d="M82.18,285.81c-2.02-15.76-5.11-31.02-15.43-44.03-5.78-7.29-4.15-20.51,2.72-25.41,7.85-5.6,19.57-6.87,27.65,1.63,14.64,15.42,28.86,31.23,43.32,46.82,11.76,12.68,23.67,25.21,35.41,37.91,21.61,23.4,46.29,43.26,72.2,61.53,14.16,9.98,28.02,20.56,44.46,28.97-2.9-7.71-3.64-14.99-3.36-22.48,.34-9.15,3.52-17.01,9.01-24.23,7.56-9.92,14.08-20.76,22.53-29.82,5.89-6.32,4.21-10.67,1.07-16.91-9.02-17.9-17.5-36.08-26.08-54.2-.95-2.01-1.18-4.37-1.75-6.57-.94-2.73,.25-5.65-.75-8.37-1.55-14.69,7.73-30.85,25.91-33.73,2.38-.91,4.97,.22,7.34-.75,12.65,.56,25.3,.2,37.95,.1,19.49-.15,38.99-.29,58.48,.08,8.15,.15,16.32,1.41,20.88,9.88,.87,1.62,2.07,3.03,3.93,.18,3.93-6.06,9.79-9.11,17.04-9.5,12.63-.68,25.32-1.35,37.84,.48,11.54,1.68,19.4,12.22,19.45,24.7,.07,17.83,.01,35.66,.03,53.49,0,1.82,.17,3.65,.26,5.47,6.21,.85,12.42,.84,18.63,0,.12-16.95,.17-33.91,.42-50.86,.07-4.74-.57-9.47,.68-14.26,3.33-12.74,7.99-17.41,21.15-18.83,12.56-1.35,25.22-1.16,37.78,.13,7.43,.76,10.03,3.08,17.66,13.07,5.15-6.31,11.2-11.2,19.69-11.68,4.8-.27,9.61-.33,14.42-.49,9.25,1,18.53,.14,27.8,.44,3.8,.12,7.62-.37,11.4,.32,12.56,.09,25.11,.17,37.67,.26,8.94,.91,17.91,.15,26.87,.42,2.48,.08,4.98-.33,7.44,.29,4.51,1.88,9.63,1.99,13.67,5.35,5.08,4.24,8.21,9.45,9.51,15.86,.57,1.27,.34,2.62,.34,3.94,.01,48.01,.01,96.01,0,144.02,0,1.32,.2,2.66-.3,3.95-1.76,11.48-8.75,18.74-19.11,22.91-10.16,4.1-19.56,9.88-30,13.34-15.23,5.04-30.17-6.93-30.12-23.6,.09-33.31,.03-66.63,.03-99.94,0-4.87-4.75-7.66-9.17-5.38-1.79,.92-1.12,2.63-1.13,4.01-.06,11.16-.03,22.32-.03,33.48,0,29.48,0,58.96,0,88.45,0,13.14-1.16,16.68-8.95,26.95,3.74,.37,6.41-1.83,9.22-3.06,17.24-7.53,35.34-12.69,52.85-19.44,24.18-9.32,46.41-22.2,67.39-37.31,13.22-9.52,26.73-18.66,39.56-28.68,7.28-5.69,14.31-11.8,21.31-17.88,10.29-8.94,19.32-19.09,29.22-28.38,6.46-6.06,11.71-13.4,17.8-19.89,7.01-7.47,14.14-14.85,21.18-22.28,9.32-9.83,18.65-19.67,27.78-29.68,2.99-3.28,5.78-6.71,9.01-9.82,10.49-10.08,25.92-4.88,30.6,5.98,3.22,7.46,2.36,14.92-3.33,21.13-8,8.74-11.65,19.47-14.24,30.63-.85,3.66-1.62,7.47-1.17,11.33-1.2,3.99,.21,8.14-.77,12.14-.09,1.88-.19,3.76-.28,5.63-1.12,6.76,.29,13.61-.75,20.37-.08,.55-.16,1.1-.24,1.64-1.08,3.73,.25,7.62-.76,11.35-1.9,8.16-2.89,16.56-6.03,24.41-1.31,3.27-1.89,5.52,1.55,8.64,6.96,6.3,6.86,18.09,.81,25.17-13.9,16.29-20.19,36.57-28.46,55.79-.52,1.21-.88,2.51-1.5,3.67-3.84,7.12-7.25,13.82-2.5,22.39,2.96,5.34,.72,11.42-3.57,15.97-11.77,12.5-20.76,26.95-29.89,41.37-7.76,12.25-17.52,22.95-28.39,32.53-2.39,2.11-2.61,4.04-2.01,6.6,2.14,9.02-.68,16.9-8.75,21.03-17.71,9.08-33.55,21.08-50.36,31.53-1.24,1.81,.11,4-.87,5.85-1.65,10.25-8.63,14.39-18.01,16.38-7.21,1.53-14.39,3.39-21.22,6.29-10.77,3.95-21.53,7.91-32.3,11.84-3.43,1.25-6.83,2.7-10.36,3.57-6.24,1.54-11.85,2.84-14.92,10.04-2.54,5.96-9.52,7.97-15.43,7.1-19.97-2.95-40.19-2.54-60.15-5.12-4.01-.52-7.5-1.12-11.19,1.66-2.38,1.79-6.04,2.89-9.03,1.97-5.4-1.66-4.51,.86-3.5,4.17,3.44,11.32,2.04,22.77,.72,34.19-.87,7.47-.8,14.89-.4,22.41,.33,6.17-1.06,12.27-6.68,16.32-1.19,.85-2.36,1.55-2.61,3.36-3.05,22.13-15.51,38.85-31.14,53.68-3.01,2.85-5.02,6.08-6.05,10.07-2.63,10.21-9.89,15.42-20.57,14.46-2.73-.25-2.16,1.27-2.23,2.57-.25,4.67-.15,9.39,1.2,13.85,2.52,8.35-3.55,18.18-9.21,20.69-8.9,3.95-18.93,1.81-24.92-4.99-8.35-9.47-18.12-17.69-24.79-28.62-.81-1.33-2.33-1.36-3.54-1.54-6.54-.98-10.78-5-13.81-10.43-7.85-14.08-15.77-28.15-20.6-43.66-.4-1.28-.54-2.49-2.07-3.11-7.25-2.95-10.59-8.76-11.37-16.23-.86-8.21-3.71-15.85-6.83-23.34-9.26-22.22-9.94-44.16,1.92-66.64-5.78,1.17-10.94,1.94-15.94,3.3-6.05,1.64-11.49,.64-16.62-2.7-1.13-.74-2.16-1.43-3.65-1.18-16.85,2.91-33.9,.1-50.81,1.65-4.57,.42-9.07,1.63-13.87,.56-5.87-1.31-9.94-4.53-12.65-9.56-.9-1.67-1.83-2.53-3.62-2.87-17.94-3.38-34.51-10.91-51.53-17.05-7.67-2.77-15.35-5.54-23.26-7.45-9.17-2.22-14.79-9.44-14.95-18.64-.04-2.03-.41-3.33-2.35-4.38-13.34-7.21-25.44-16.39-38.43-24.16-3.85-2.3-8.01-4.1-11.75-6.56-6.98-4.59-9.82-11.87-7.78-19.89,.81-3.17,.09-5.17-2.36-7.32-14.25-12.55-25.17-27.83-35.4-43.67-6.23-9.65-12.84-19.03-20.52-27.61-7.52-8.4-8.28-16.38-2.32-25.86,1.12-1.79,1.34-3.08,.17-4.94-9.66-15.24-16.27-31.98-23.61-48.36-2.8-6.26-6.42-12-10.84-17.24-8.7-10.33-7.74-21.73,2.56-30.41,1.01-.85,2.21-1.39,1.36-3.17-5.71-11.94-8.56-24.69-10.54-37.68-.11-1.23-.22-2.46-.33-3.69-.94-4.36,.37-8.85-.75-13.2-.09-2.27-.17-4.53-.26-6.8-.82-2.37,.28-4.92-.72-7.27-.1-1.91-.19-3.82-.29-5.73-.73-1.66,.21-3.55-.73-5.18Z"/><path class="cls-3" d="M787.14,372.99c-.05-27.48-.14-54.96-.15-82.45,0-23.15,.07-46.3,.11-69.46,1.46,1.56,.84,3.49,.84,5.25,.03,47.13,.03,94.25,0,141.38,0,1.77,.6,3.69-.8,5.27Z"/><path class="cls-3" d="M691.95,198.9c-11.95-.04-23.9-.09-35.85-.14-1.15,0-2.34,.14-3.35-.63,11.81-.03,23.63-.06,35.44-.07,1.3,0,2.69-.28,3.76,.84Z"/><path class="cls-3" d="M763.93,199.87c-11.44-.01-22.89,.41-34.31-.71,10.36-.04,20.72-.07,31.08-.1,1.14,0,2.32-.13,3.23,.82Z"/><path class="cls-3" d="M994.05,324c.15-6.79-.97-13.63,.75-20.36-.25,6.79,1.09,13.63-.75,20.36Z"/><path class="cls-3" d="M540.93,281.04c-6.21,1.34-12.42,1.36-18.63,0,6.21,0,12.42,0,18.63,0Z"/><path class="cls-3" d="M84.18,310.8c1.12,4.35,.98,8.77,.75,13.2-1.79-4.31-.45-8.8-.75-13.2Z"/><path class="cls-3" d="M995.09,298c-.15-4.07-.61-8.17,.77-12.14-.3,4.04,.94,8.19-.77,12.14Z"/><path class="cls-3" d="M993.05,337c.12-3.79-.88-7.66,.76-11.35-.2,3.79,1.01,7.67-.76,11.35Z"/><path class="cls-3" d="M293.18,230.65c1.59,2.67,.64,5.57,.75,8.37-1.74-2.66-.57-5.57-.75-8.37Z"/><path class="cls-3" d="M83.2,296.72c1.02,2.35,.75,4.82,.72,7.27-1.59-2.29-.55-4.84-.72-7.27Z"/><path class="cls-3" d="M326.43,196.17c-2.34,1.28-4.86,.8-7.34,.75,2.3-1.67,4.89-.58,7.34-.75Z"/><path class="cls-3" d="M833.09,631.95c.31-1.95-1.1-4.15,.87-5.85-.29,1.95,.72,4.09-.87,5.85Z"/><path class="cls-3" d="M82.18,285.81c1.01,1.62,.8,3.41,.73,5.18-1.39-1.57-.62-3.44-.73-5.18Z"/><path class="cls-20" d="M973.46,371.39c12.81,2.4,16.22,10.79,8.67,20.25-10.54,13.19-17.09,28.41-23.33,43.85-4.43,10.95-8.74,21.97-14.88,32.12-1.11,1.83-.87,2.53,.87,3.87,6.61,5.09,7.01,11.95,1.36,18-9.59,10.26-17.62,21.65-24.79,33.7-9.72,16.32-22.17,30.31-36.86,42.3-2.2,1.8-3.59,2.67-.84,5.7,4.91,5.41,3.1,13.5-3.72,16.8-19.39,9.4-35.53,24.12-55.03,33.28-1.68,.79-1.29,1.6-.84,3.05,2.83,9.01,.22,13.67-8.88,15.76-18.07,4.14-35.29,10.87-52.57,17.38-8.73,3.29-17.4,6.68-26.63,8.24-2.1,.35-2.84,.91-3.28,3.21-1.56,8.23-5.81,11.5-14.17,10.13-19.12-3.13-38.53-2.45-57.68-4.89-1.48-.19-2.95-.49-4.39-.88-3.09-.83-5.61-1.11-8.25,1.86-2.29,2.57-5.81,3.27-9.68,2.28-6.08-1.55-11.95-3.76-19.23-6.01,13.08,16.77,12.97,34.79,10.33,53.27-1.02,7.11-1.04,14.24-.33,21.42,.48,4.82-.47,9.37-5.66,11.58-1.66,.7-2.49,1.56-2.72,3.59-2.42,21.51-13.93,38.06-29.19,52.41-4.13,3.89-7.12,8.19-8.48,13.75-2.08,8.55-9.3,12-16.69,7.51-3.27-1.99-3.55-.19-4.38,1.78-3.44,8.23-2.49,16.63-.84,25.02,1.15,5.84-.77,10.59-5.24,12.64-5.83,2.67-11.2,1.33-15.14-3.4-5.85-7.04-13.21-12.69-18.69-20.08-1.58-2.13-3.17-4.27-4.63-6.48-2.13-3.21-3.64-6.46-8.88-5.79-3.67,.47-6.68-2.62-8.53-6.04-8.15-15.06-16.93-29.84-21.38-46.59-.43-1.62-.92-2.98-3.02-3.39-6.41-1.25-9.14-5.91-9.5-11.86-.56-9.2-4.06-17.53-7.5-25.76-10.91-26.16-6.26-49.68,10.95-71.41,.9-1.13,2.31-1.97,2.28-3.72-1.17-1.36-2.15,0-3.01,.35-11.21,4.44-23.11,6.13-34.76,8.8-3.69,.84-7.12-.52-9.64-3.04-1.79-1.79-3.38-2.16-5.67-1.78-10.73,1.77-21.53,1.66-32.37,1.25-8.82-.33-17.64,.3-26.41,1.36-7.7,.93-11.21-1.15-13.55-8.36-.5-1.54-.67-3.05-3-3.28-16.46-1.66-31.34-8.68-46.62-14.24-10.8-3.93-21.58-7.84-32.66-10.89-7.89-2.17-11.15-7.89-8.43-15.54,.69-1.94,.78-2.78-1.24-3.75-15.99-7.63-29.96-18.57-45.09-27.61-2.28-1.36-4.65-2.6-7.02-3.79-10.08-5.06-11.49-12.24-3.84-20.89-16.13-12.63-29.05-28.11-40.11-45.25-7.94-12.31-16.48-24.15-25.96-35.36-5.41-6.4-2.59-13.78,6.25-18.25-9.16-13.72-16.83-28.23-23.1-43.43-5.03-12.21-10.4-24.14-19.37-34.08-2-2.22-2.62-5-2.53-7.9,.2-6.97,4.59-10.57,14.37-11.38-2.26-4.73-4.46-9.25-6.6-13.8-8.09-17.17-8.52-35.68-9.6-54.11-.97-16.46-2.16-32.92-8.03-48.58-2.46-6.56-5.39-12.87-9.85-18.39-3.72-4.61-3.42-11.48,.48-14.93,4.55-4.02,11.85-4.25,15.97-.05,6.06,6.17,11.73,12.71,17.71,18.97,25.99,27.19,50.3,55.99,77.44,82.08,20.19,19.41,42.67,35.96,65.52,52.14,23.46,16.62,47.83,31.29,74.49,42.17,21.62,8.83,44.23,14.57,66.29,22.01,14.88,5.01,28.62,11.94,37.98,25.28,8.61,12.27,11.9,26.41,12.88,40.95,1.44,21.28,14.48,32.76,34.89,35.66,6.8,.96,13.25,.47,19.68-1.24,7.09-1.89,9.21-5.53,8.6-12.42-.27-3.04-1.93-4.35-4.25-5.52-6.7-3.35-14.15-3.48-21.27-5.02-7.76-1.68-10.97-5.26-10.69-12.04,.14-3.53,1.39-6.26,4.55-8.34,4.33-2.86,8.67-5.77,13.52-7.46,7.05-2.46,12.39-7,18.04-11.67,12.8-10.57,27.94-15.68,44.54-13.6,10.93,1.37,20.09-.77,28.02-8.28,3.11-2.95,6.7-4.48,10.92-3.36,2.03,.54,2.99-.56,4.35-1.51,5.01-3.49,9.95-3.25,14.14,.51,4.34,3.9,5.2,8.41,2.44,13.98-6.38,12.9-14.58,24.56-24.07,35.36-3.74,4.26-7.39,8.66-9.5,14-4.35,11.02-2.34,19.71,10.49,21.98,10.04,1.77,19.79,1.85,29.55-.92,12.21-3.47,17.34-13.15,20.85-24.17,3.13-9.82,5.52-19.86,9.05-29.58,6.5-17.88,19.12-29.37,36.06-37.29,22.96-10.73,46.93-18.74,70.65-27.46,28.03-10.31,53.07-25.92,77.22-43.27,16.09-11.56,31.92-23.39,47.16-36.07,18.75-15.6,35.58-33.11,51.61-51.39,12.63-14.39,26.41-27.68,39.19-41.92,6.34-7.06,12.7-14.09,19.2-21,5.9-6.28,11.56-6.85,16.99-2.01,5.09,4.53,4.74,10.81-.54,17.12-10.2,12.2-14.51,26.83-16.29,42.25-1.49,12.88-1.71,25.86-2.24,38.82-.71,17.46-2.15,34.92-12.35,50.77Z"/><path class="cls-20" d="M451.25,325.04c0-33.82,.01-67.65-.01-101.47,0-4.23,.51-8.3,2.92-11.92,2.85-4.29,6.74-6.93,11.99-6.97,10.82-.08,21.67-.46,32.47,.1,9.6,.49,15.37,7.49,15.39,17.37,.04,20.99,.1,41.99-.07,62.98-.03,3.58,.62,4.95,4.58,4.81,8.82-.33,17.66-.27,26.49-.02,3.6,.1,4.41-1.13,4.39-4.53-.14-20.83-.09-41.66-.06-62.48,0-5.69,1.51-10.66,5.95-14.77,2.73-2.53,5.81-3.36,9.08-3.42,10.99-.19,21.98-.22,32.97-.04,10.73,.17,15.29,9.17,15.62,18.38,.25,6.99,.05,13.99,.05,20.99,0,60.32,.03,120.63-.03,180.95,0,8-1.64,15.34-10.26,18.76-2.04,.81-4.09,1.29-6.31,1.28-10.83-.05-21.66,.02-32.49-.04-8.3-.04-13.69-4.66-14.06-13.03-.57-12.8-.56-25.63-.72-38.45-.12-9.49-.23-18.99-.15-28.48,.02-2.8-.34-4.17-3.71-4.09-9.49,.24-19,.24-28.49,0-3.38-.09-3.71,1.32-3.7,4.11,.07,21.16,0,42.32-.03,63.48-.02,11.02-5.51,16.47-16.62,16.47-8.83,0-17.66,0-26.49,0-12.91,0-18.68-5.86-18.69-19,0-33.66,0-67.32,0-100.97Z"/><path class="cls-20" d="M623.94,325.2c0-33.65,0-67.31,0-100.96,0-10.86,6.8-17.95,17.73-17.84,40.12,.41,80.25,.95,120.37,1.59,10.54,.17,16.94,7.02,16.94,17.45,0,47.98-.08,95.96,.08,143.95,.03,8.42-3.75,14-10.87,17.49-9.7,4.76-19.56,9.19-29.37,13.71-11.56,5.33-22.83-1.76-22.86-14.53-.07-36.15-.1-72.31,.07-108.46,.02-4.21-.71-5.92-5.35-5.53-5.62,.48-11.33,.29-16.98,.04-3.3-.15-4.24,.92-4.19,4.2,.18,12.49,.07,24.99,.07,37.49,0,31.49,0,62.98,0,94.47,0,13.44-2.85,17.41-15.11,22.73-9.46,4.1-18.91,8.24-28.3,12.47-11.65,5.25-22.55-4.02-22.33-16.31,.36-19.82,.1-39.65,.1-59.48,0-14.16,0-28.32,0-42.48Z"/><path class="cls-20" d="M382.89,266.28c6.98,13.42,13.84,27.48,21.53,41.07,5.89,10.41,2.69,19.54-3.75,26.84-6.6,7.47-12.58,15.49-18.8,23.28-.49,.62-.79,1.39-1.31,2.3,15.71,5.14,31.13,10.36,46.68,15.22,7.9,2.47,12.07,7.74,12.36,15.65,.39,10.48,.51,21.01-.07,31.47-.79,14.27-9.15,19.32-22.54,14.28-31.59-11.9-63.18-23.82-94.76-35.75-4.51-1.7-9.03-3.4-13.46-5.3-6.22-2.65-10.21-6.91-11.1-14.09-1.32-10.68-.02-20.39,6.84-29.2,9.8-12.57,19.14-25.51,28.82-38.18,1.94-2.54,2.32-4.51,.83-7.52-9.64-19.34-19.01-38.83-28.59-58.21-4.37-8.85-5.01-18.11-3.28-27.57,1.3-7.13,9.97-14.68,17.29-15.47,3.3-.36,6.64-.57,9.96-.58,30.98-.13,61.97-.22,92.95-.28,12.18-.02,17.21,5.06,17.24,17.29,.02,8.66,.08,17.33-.01,25.99-.12,12.07-6.94,18.74-19.04,18.75-12.61,.01-25.21,0-37.79,0Z"/><path class="cls-2" d="M569.14,453.27c-4.46,4.15-9.09,4.46-14.01,3.81-18.85-2.47-36.68,1.33-51.23,13.19-9.98,8.13-21.5,12.84-32.14,19.37-8.88,5.45-11.29,14.91-8.79,23.17,1.79,5.92,5.56,9.86,11.39,11.43,5.76,1.55,11.69,2.5,17.55,3.73,1.13,.24,2.3,.44,3.36,.88,1.14,.47,2.95,.54,2.82,2.27-.12,1.56-1.83,1.94-3.01,2.21-2.89,.69-5.86,1.43-8.8,1.45-6.34,.05-12.57-.9-18.48-3.42-10.8-4.6-15.63-12.99-16.78-24.48-1.79-18.03-5.4-35.55-17.5-50.09-3.13-3.76-6.76-6.86-11.49-10.65,9.51,.26,17.17-1.88,22.14-10.39,4.77,13.08,14.02,17.85,26.84,17.32,8.98-.37,17.99-.02,26.99-.08,13.44-.1,22.95-9.53,23.04-22.99,.12-18.66,.17-37.33,.03-55.99-.03-3.69,.57-5.49,4.81-5.07,4.77,.47,11.23-1.54,13.98,.9,3.13,2.77,1.17,9.36,1.25,14.29,.23,15.15-.28,30.35,.69,45.45,1.1,17.13,8.13,23.07,25.21,23.43,.48,.01,.96,.1,2.15,.24Z"/><path class="cls-2" d="M395.8,273.1c7.68,1.39,14.49,.95,21.27,1.12,13.29,.32,16.08-.73,25.87-9.53v111.52c-5.86-7.28-13.73-8.9-21.3-11.25-8.4-2.61-16.7-5.56-25.07-8.28-2.15-.7-3.17-1.39-1.27-3.59,3.79-4.41,7.23-9.14,11.16-13.42,4.03-4.4,6.63-9.3,8.32-15.06,2.04-6.96,.46-13.16-2.53-19.19-4.72-9.53-9.76-18.91-14.64-28.36-.52-1.01-.95-2.06-1.81-3.96Z"/><path class="cls-2" d="M618.47,440.2c4.26,6.52,9.46,11.1,17.09,12.41,6.99,1.2,13.06-1.62,19.21-4.05,4.58-1.81,9.04-3.92,13.59-5.91,.71,1.52-.27,1.85-.84,2.19-17.25,10.3-26.12,26.43-31.5,45.04-2.26,7.82-4.59,15.62-7.03,23.38-3.92,12.47-12.99,16.87-24.89,17.67-5.01,.34-9.96-.25-14.87-1.12-6.31-1.11-7.85-4.25-5.35-10.33,2.86-6.93,8.02-12.23,12.74-17.78,7.92-9.3,14.4-19.52,20.14-30.25,4.3-8.03,4.59-15.78-1.47-23.2-1.62-1.99-1.47-2.12,3.17-8.06Z"/><path class="cls-1" d="M674.32,439.43c3.96-1.76,7.92-3.52,11.88-5.28,.19,.43,.39,.86,.58,1.29-4.02,1.84-8.03,3.68-12.05,5.52-.14-.51-.28-1.02-.42-1.53Z"/><path class="cls-2" d="M732.03,522.91c28.98,10.74,58.8,11.76,89.07,7.79,18.84-2.47,37.49-5.73,55.4-12.38,22.2-8.23,41.79-20.48,58.27-37.58,1.67-1.73,3.37-4.59,6.1-2.15,2.71,2.41,.3,4.46-1.41,6.27-12.32,13.06-20.9,28.8-31.2,43.3-16.75,23.57-37.26,42.58-65.71,51.24-15.79,4.8-32,5.98-48.39,5.47-1.33-.04-2.66,0-3.98,0-2.61-.67-5.23-.54-7.85-.06-.79,.12-1.58,.11-2.35-.12-2.09-1.35-4.64-.16-6.79-1.2-3.17-.64-6.39-1.02-9.5-1.95-1.26-.41-2.57-.6-3.68-.85,.66,.41,1.67,.23,2.55,.6,3.26,.96,6.59,1.58,9.95,2.07,1.12,.57,2.33,.66,3.56,.63,.98,.03,1.97-.02,2.92,.29,1.2,.93,2.94,.45,4.05,1.59,30.41,3.89,60.04,.77,88.82-9.9,2.13-.79,4.57-2.34,6.03,.75,1.5,3.16-1.25,3.97-3.32,4.95-12.69,6.04-23.77,14.65-35.47,22.28-34.58,22.52-71.91,25.9-111.15,15.8-.96-.25-1.91-.55-2.87-.83-.68-.56-1.46-.41-2.24-.35-.82,.07-1.53-.2-2.37-.84,.88,.95,1.92,1.34,2.55,2.2,19.52,8.5,40.05,10.7,61.07,9.71,8.98-.42,17.9-1.52,26.73-3.34,.81-.17,1.65-.27,2.47-.34,1.87-.15,3.33,.46,3.7,2.48,.37,2.03-.69,3.14-2.6,3.54-22.73,4.76-43.88,14.14-65.53,22.12-21.9,8.07-43.11,5.28-63.57-5.3-1.32-.68-2.66-1.34-3.98-2.02-2.96-.36-4.9-2.33-7.08-4.52,1.74,2.39,4.54,3.28,5.75,5.75,11.64,8.85,25.3,12.97,39.14,16.66,.8,.21,1.64,.29,2.44,.52,1.76,.53,3.84,.98,3.25,3.52-.56,2.39-2.37,2.88-4.65,2.6-7.26-.91-14.52-1.98-21.81-2.55-11.1-.87-22.25-1.21-33.35-2.1-10.51-.84-20.02-4.6-28.58-10.79-.97-.7-1.68-2.05-3.54-1.81,1.95,3.79,5.22,6.02,8.18,8.51,1.77,1.49,4.23,2.73,2.74,5.59-1.39,2.67-3.75,1.4-5.76,.82-25.47-7.27-46.98-20.14-61.16-43.35-.16-.25-.49-.4-1.19-.94-1.85,5.78-.42,10.8,2.28,15.57,4.27,7.54,10.88,12.93,17.28,18.51,4.26,3.72,8.65,7.32,12.63,11.33,12.02,12.1,16.95,26.67,14.95,43.68-1.3,11.05-3.19,22.1-1.23,33.28,.34,1.93-.79,3.24-2.59,3.71-2.12,.55-3-.89-3.47-2.66-.88-3.37-1.74-6.75-2.61-10.12-1.56-1.58-1.28-3.92-2.34-5.7,.18-1.27-1.32-2.2-.8-3.55-.62,1.34,.92,2.27,.75,3.53,1.16,2.13,1.18,4.49,1.39,6.82,4.81,27.42-5.27,49.35-24.89,67.82-5.5,5.18-10.18,10.92-11.29,18.8-.29,2.06-1.66,3.33-3.86,2.95-2.37-.41-2.51-2.39-2.44-4.26,.31-8.48,1.92-16.77,3.74-25.02,.1-2.11,.71-4.1,1.36-6.09,.32-.71,.35-1.58,.96-2.01-.77,.26-.6,1.23-.99,1.85-.61,1.69-.67,3.65-2.31,4.84-5.34,10.68-10.67,21.36-16.01,32.04-4.8,9.6-5.69,19.64-3.44,30.06,.35,1.61,.79,3.34,.54,4.92-.41,2.63-2.5,4.2-4.53,2.06-9.8-10.33-21.21-19.36-27.54-32.57-6.28-13.1-6.21-26.54-1.72-40.22,3.73-11.38,9.51-21.89,13.64-33.09,.57-4.64,2.71-8.72,4.56-12.91,1.16-1.17-.1-2.77,.7-4,.64-1.18,.67-2.55,1.1-3.77,.19-.62,.2,.24,.1-.41-.07-.51-.17-.54-.06-.06-.21,.82-.46,1.58-.57,2.37-1.12,1.76-.69,3.82-1.1,5.71-2.51,3.31-2.45,8.03-5.91,10.82-7,12.82-15.84,24.66-20.46,38.74-3.07,9.36-3.46,18.6,.94,27.69,.9,1.85,1.03,3.61-.91,4.81-2.05,1.27-3.47,.2-4.46-1.63-9.04-16.69-18.43-33.2-22.35-52.12-3.73-17.99-.06-34.67,8.18-50.71,3.38-6.59,6.96-13.12,9.4-20.22-2.05-.83-2.34,.66-2.98,1.42-13.54,16.11-18.44,35.1-18.46,55.69,0,3,.07,6,0,9-.05,1.99-1.27,3.09-3.21,3.07-1.74-.02-2.69-1.09-2.79-2.87-.59-11.54-5.13-21.98-9.24-32.49-7.97-20.39-4.86-39.22,7.63-56.68,6.68-9.34,14.1-18.15,20.89-27.41,5.46-7.45,9.6-15.59,10.44-25.03,.11-1.26,.57-2.55-.64-4.4-2.28,3.11-4.53,5.89-6.46,8.88-12.39,19.11-29.48,30.85-52.29,33.87-3.62,.48-7.18,1.46-10.76,2.27-2.17,.49-4.12,.43-4.76-2.14-.57-2.29,.94-3.23,2.87-3.89,4.28-1.46,8.26-3.5,11.48-6.77,.46-.98,.77-2.07,1.27-2.32-.42,.27-1.34,1.01-2.54,1.15-16.24,11.02-34.71,11.25-53.23,10.74-9.49-.26-18.9,.18-28.34,.96-2.48,.21-6.31,2.19-6.92-2.2-.6-4.28,3.64-3.65,6.06-4.18,13.49-2.98,26.77-6.45,38.75-13.65,.7-.42,1.31-.98,1.97-1.48,1.16-2.37,3.68-3.24,5.64-5.17-2.34,1.7-4.2,3.69-7.01,3.93-18.19,9.97-37.49,14.03-58.16,11.17-8.47-1.17-16.44-4.01-24.33-7.11-16.07-6.31-32.18-12.51-48.82-17.2-2.29-.65-6.15-.42-5-4.54,.97-3.49,4.05-2.1,6.36-1.66,16.94,3.18,33.97,4.48,51.15,2.66,12.46-1.32,24.65-3.85,36.13-9.12,.41-.57,1.08-.88,1.5-1.44-1.16,.3-2.45-.46-3.55,.42-26.94,8.29-53.97,9.14-81.08,.9-15.3-4.65-28.74-12.96-41.85-21.84-8.81-5.96-17.42-12.25-27.15-16.7-2.04-.94-3.68-1.97-2.64-4.43,1.02-2.42,3-2.14,5.06-1.34,14.8,5.73,30.11,9.37,45.9,10.96,11.26,1.13,22.54,1.36,33.82,.38,2.09-1.44,4.77-.28,6.9-1.54,1.53-.51,3.12-.25,4.68-.37,2.51-.46,5.07-.61,7.53-1.35,1.98-.35,3.98-.57,5.96-.98,2.01-.08,3.82-1.16,5.85-1.18,2.3-.83,4.84-.72,7.09-1.77,2.28-.79,4.58-1.49,6.92-2.08,1.98-.7,3.99-1.35,5.97-2.06,1.97-.54,3.85-1.36,5.79-2,.44-.12,.87-.28,1.28-.5-.45,.11-.87,.3-1.32,.45-2.13,.81-4.29,1.46-6.4,2.26-1.77,.48-3.46,1.23-5.24,1.69-2.16,.74-4.39,1.27-6.55,2.02-2.56,1.04-5.33,1.22-7.96,2.01-1.95,.13-3.73,1.08-5.69,1.16-2.23,.55-4.56,.59-6.77,1.25-3.83,1.02-7.84,.73-11.68,1.68-1.28,.56-2.61,.43-3.94,.29-.52-.14-.99-.39-1.4-.75-17.89,.51-35.54-.68-52.73-6.3-25.44-8.32-44.33-25.08-59.99-46.05-10.85-14.53-20.05-30.25-31.62-44.27-1.27-1.54-2.55-3.07-3.89-4.56-1.47-1.63-2.46-3.41-.57-5.23,1.94-1.87,3.58-.67,5.11,.9,5.35,5.49,10.89,10.75,16.91,15.51,23.35,18.46,50.45,27.97,79.36,32.91,20.86,3.56,41.83,5.84,63.07,4.13,15.17-1.22,29.91-4.33,44.28-9.27,.28-.53,1.18-.4,1.24-1.16-1.08,.25-2.23-.65-3.27,.19-19.61,2.75-39.23,5.37-59.09,5.42-44.32,.12-85.6-9.31-120.35-38.74-17.69-14.97-28.99-34.54-38.51-55.26-2.5-5.44-4.82-10.97-7.09-16.51-4.26-10.39-9.72-20.05-17.1-28.55-1.64-1.89-3.13-3.98-.73-5.98,2.25-1.88,3.87,.16,5.41,1.76,11.55,11.99,23.31,23.76,36.13,34.43,19.77,16.45,41.52,29.4,65.98,37.48,31.12,10.29,62.34,20.33,95.03,24.52,6.75,.87,13.59,.96,20.39,1.41,3.1-1.03,6.41,.33,9.51-.82,.62-.23,0,.2,.29-.29,.3-.5-.7-.21-.87-.63-58.74-8.36-115.04-23.97-165.18-57.04-23.07-15.21-42.48-34.25-56.16-58.63-7.81-13.93-11.31-29.03-12.45-44.81-1.4-19.41-1.74-38.95-6.94-57.89-2.8-10.19-6.89-19.79-13.14-28.39-1.02-1.4-2.9-2.58-.43-4.46,2.23-1.69,3.81-1.22,5.56,.7,7.86,8.61,15.62,17.32,23.73,25.68,26.54,27.38,50.24,57.57,79.21,82.5,39.47,33.95,80.78,65.4,129.26,85.95,22.08,9.36,44.83,16.71,67.92,23,30.9,8.42,46.43,28.47,48.91,60.3,2.56,32.94,34.44,52.53,65.73,41.44,10.7-3.8,15.73-12.38,13.25-22.48-1.68-6.83-6.77-9.98-12.85-12.03-5.71-1.93-11.72-2.5-17.59-3.66-2.15-.42-5.1-.03-5.69-3.06-.65-3.32,2.58-3.82,4.43-5.28,.39-.31,.85-.52,1.3-.74,10.65-5.2,20.95-10.38,30.16-18.57,10.07-8.96,23.65-12.1,37.5-9.83,12.35,2.03,22.55-1.84,31.76-9.74,4.4-3.77,6.21-3.04,7.61,2.86,2.8-1.79,4.76-4.24,6.79-6.59,1.27-1.46,2.58-2.88,4.62-1.5,2.08,1.41,1.77,3.28,.7,5.26-5.71,10.58-12.23,20.61-19.88,29.91-3.59,4.37-7.11,8.83-10.32,13.48-3.65,5.28-5.77,11.21-6.11,17.7-.44,8.55,3.46,15.78,11.3,18.75,15.02,5.69,30.27,5.96,45.31-.08,10.06-4.04,16.39-11.87,19.82-21.9,3.56-10.39,6.64-20.94,9.84-31.45,5.1-16.77,15.56-28.51,31.61-35.86,20.59-9.43,41.76-17.32,63.1-24.76,36.76-12.81,68.82-33.66,100.17-56.24,37.18-26.78,69.26-58.74,99.6-92.76,14.96-16.77,30.58-32.96,45.9-49.41,.68-.73,1.26-1.61,2.06-2.15,1.65-1.1,3.13-.52,4.47,.78,1.5,1.45,.77,2.5-.35,3.79-14.75,17.02-18.9,37.77-20.5,59.3-1.04,13.94-1.3,27.93-2.38,41.87-1.86,24.14-13.75,43.41-30.17,60.33-26.18,26.97-58.3,44.56-92.8,58.16-32.8,12.94-66.77,21.68-101.7,26.63-1.31,.19-2.6,.56-3.9,.85,.35,.6-2.2,.66-.48,.94,5.51,.92,11.13,.74,16.7,.12,17.61-.37,34.62-4.38,51.47-8.98,24.24-6.63,48.61-12.93,71.66-23.23,24.37-10.89,44.76-27.38,63.68-45.86,7.15-6.98,14-14.26,20.95-21.44,1.54-1.59,3.16-2.74,5.11-.92,1.66,1.55,1.14,3.31-.24,4.86-12.32,13.85-19.01,30.75-25.81,47.59-5.55,13.74-10.91,27.55-20.08,39.47-16.12,20.94-37.7,33.86-62.17,42.54-30.97,10.98-62.92,13.74-95.5,11.26-13.13-1-26.14-2.88-39.17-4.57-1.12-.77-2.29,.04-3.41-.12-.11,.09-.32-.36-.37,.08,.66,.23,1.23,.58,1.7,1.08Z"/><path class="cls-19" d="M538.04,747.94c-.83,4.7-2.47,9.11-4.9,13.22-.22-.84-.2-1.79-1.17-2.24,1.26-3.16,2.56-6.31,3.77-9.49,.45-1.19,.92-2.12,2.42-1.46l-.11-.04Z"/><path class="cls-22" d="M764.23,481.15c-6.94,1.26-13.84,.92-21.41-.15,2.08-1.35,3.65-.98,5.18-.91,5.31,1.92,10.86,.08,16.22,1.06Z"/><path class="cls-33" d="M399.7,645.77c3.1-2.27,6.19-4.55,9.29-6.82,.25,.34,.5,.67,.75,1.01-2.24,3.08-5.23,5.32-8.68,7.06-.45-.42-.91-.83-1.36-1.25Z"/><path class="cls-32" d="M679.96,648.02c-3.5-1.84-6.45-4.3-8.64-7.71,3.76,1.49,6.86,3.99,9.97,6.48-.44,.41-.89,.82-1.33,1.23Z"/><path class="cls-42" d="M723,619.94c-2.01-.82-4.03-1.64-6.04-2.46,3.26-1.3,5.63,.25,8.1,1.45-.69,.34-1.37,.67-2.06,1.01Z"/><path class="cls-36" d="M334.91,480.16c1.13-.25,2.24-.39,3.5,.45-4.1,2.03-8.28,1.49-12.42,1.28,2.69-2.03,6.23,.28,8.92-1.73Z"/><path class="cls-34" d="M442.78,656.82c1.91-1.59,3.83-3.18,6.84-5.69-1.37,4.05-3.43,5.49-5.57,6.86-.42-.39-.84-.78-1.27-1.17Z"/><path class="cls-30" d="M354.98,618.94c2.13-1.08,4.17-2.56,7.1-1.78-1.33,1.93-3.18,2.38-5.05,2.79-.68-.34-1.37-.68-2.05-1.02Z"/><path class="cls-25" d="M783.01,585.88c-1.49,.23-2.93,.13-4.2-.8,.77-1.16,2.28-.09,3.12-1.03,2.78-.06,5.57-.38,8.23,.81-2.31,.83-4.98-.85-7.15,1.01Z"/><path class="cls-21" d="M610.9,731.95c1.26,1.82,1.89,3.84,2.01,6.04-.33,.36-.66,.73-1,1.09-1.22-2.22-1.41-4.7-1.71-7.14,.24-.46,.47-.46,.7,0Z"/><path class="cls-17" d="M572.19,797.98c.63-1.67,1.26-3.34,1.89-5.01,.39-.34,.77-.32,1.16,.01-.33,2.25-.93,4.41-2.06,6.4-.33-.47-.66-.93-.98-1.4Z"/><path class="cls-31" d="M294.18,586.06c-2.29,1.03-4.69,1.13-7.13,.81,.33-.59,.65-1.18,.98-1.77,.37,0,.73,0,1.1,0,1.54,1.09,3.57-.37,5.06,.96Z"/><path class="cls-29" d="M345.94,521.89c1.53-1.19,3.27-.99,5.18-.76-.53,1.67-1.89,1.62-3.15,1.73-.68-.32-1.35-.65-2.03-.97Z"/><path class="cls-27" d="M732.03,522.91c-.99-.33-1.98-.65-2.97-.98-.31-.92-.05-1.33,.95-1.05,1.41,.14,2.9-.03,4.1,.98-.69,.35-1.39,.69-2.08,1.04Z"/><path class="cls-2" d="M604.43,324.53c0,33.49,0,66.98,0,100.47,0,10.12-1.87,11.97-11.9,11.97-9.16,0-18.33-.06-27.49,.02-4.59,.04-7.28-1.65-7.34-6.63-.13-10.82-.45-21.63-.55-32.45-.12-13.16-.24-26.33-.06-39.49,.06-4.42-1.47-5.77-5.83-5.7-13.16,.24-26.32,.08-39.49,.09-6.37,0-6.58,.18-6.62,6.81-.14,22.66-.25,45.31-.36,67.97-.04,7.8-1.58,9.37-9.28,9.38-9,0-18,.03-26.99-.01-6.32-.03-9.23-2.83-9.23-9.09-.03-68.65-.03-137.3,0-205.94,0-6.19,3.02-9.24,9.17-9.31,9.16-.11,18.33-.08,27.49-.05,6.62,.02,9.4,2.79,9.41,9.42,.03,22.33,0,44.65,.01,66.98,0,7.97,.92,8.88,8.8,8.88,12.16,0,24.33,.02,36.49,0,5.68-.01,6.65-.97,6.66-6.73,.02-22.49,0-44.99,.01-67.48,0-8.5,2.64-11.11,11.01-11.08,8.5,.04,17,.03,25.49,.03,7.93,0,10.57,2.64,10.58,10.97,.04,30.82,.02,61.65,.02,92.47,0,2.83,0,5.67,0,8.5Z"/><path class="cls-2" d="M632.14,325.47c0-33.31,0-66.62,0-99.93,0-8.73,2.5-11.27,11.38-11.16,39.28,.51,78.55,1.06,117.83,1.63,6.52,.09,9.45,3,9.45,9.52,.03,47.64,0,95.27,.04,142.91,0,5.53-1.9,9.36-7.34,11.71-9.29,4.01-18.31,8.66-27.49,12.94-6.94,3.24-11.7,.21-11.9-7.59-.13-4.99-.02-9.99-.02-14.99,0-32.65,0-65.29,0-97.94,0-7.44-.94-8.37-8.29-8.38-8.83,0-17.65,0-26.48,0-6.79,0-7.73,.95-7.73,7.85,0,45.47-.13,90.94,.12,136.41,.04,7.76-2.42,12.33-9.95,15.04-9.05,3.25-17.68,7.64-26.52,11.48-8.66,3.76-13.05,.91-13.06-8.56-.04-33.64-.01-67.29-.01-100.93Z"/><path class="cls-2" d="M375.51,212.24c15.82,0,31.64-.01,47.47,0,6.62,0,8.71,2.06,8.74,8.56,.03,8.66,.02,17.32,0,25.98-.02,8.43-3.08,11.7-11.38,11.44-15.46-.49-30.91-1.3-46.37-1.9-5.33-.21-5.46,.03-2.99,4.77,8.39,16.08,16.6,32.26,25.35,48.14,3.99,7.24,3.81,13.08-1.73,19.5-8.37,9.7-16.08,19.97-24.03,30.02-3.6,4.55-3.55,4.57,1.81,6.39,17.14,5.83,34.28,11.66,51.4,17.52,7.04,2.41,7.92,3.71,7.93,11.23,.01,8.99,.17,17.99-.05,26.98-.21,8.8-3.1,10.9-11.34,7.84-35.85-13.31-71.62-26.84-107.45-40.21-4.98-1.86-7.37-5.15-7.69-10.43-.5-8.08,.9-15.25,6.15-21.92,10.82-13.72,21.03-27.94,31.61-41.85,1.73-2.27,1.94-3.98,.64-6.64-10.38-21.21-20.48-42.57-30.87-63.78-3.25-6.64-3.33-13.57-2.4-20.47,.64-4.81,3.51-8.5,8.88-9.57,3.11-.62,6.19-1.28,9.36-1.28,15.65-.02,31.3,0,46.95,0,0-.11,0-.23,0-.34Z"/><path class="cls-32" d="M579.18,778.15c-.06,3.08-.79,5.96-3.07,8.49,.66-3.88,1.31-7.75,1.97-11.63,2.42,.33,1.13,1.96,1.1,3.14Z"/><path class="cls-18" d="M763.17,580.89c3.32,.6,6.93,.14,9.75,2.62l.04-.12c-3.9,1.35-7.38-.58-11-1.41-.16-.98,.04-1.57,1.2-1.09Z"/><path class="cls-39" d="M579.18,778.15c-.46-1.02,.07-2.38-1.1-3.14v-7.17c2.37,3.39,2.28,6.83,1.1,10.31Z"/><path class="cls-31" d="M306.34,584.19c-2.22,1.58-4.97,.82-7.35,1.66-1.94-1.08-4.33,.49-6.19-1.05,3.98-1.48,8.28-.59,12.31-1.66,.44,.31,1.09,.38,1.23,1.04Z"/><path class="cls-26" d="M332.09,578.04c-2.29,.77-4.41,2.28-7.03,1.52l.07-.21c1.94-1.84,4.48-1.99,6.92-2.41,.26,.24,.36,.48,.28,.73-.08,.25-.16,.38-.24,.38Z"/><path class="cls-13" d="M601.01,709.44c2.25,1.22,2.91,3.29,3.23,5.55-2.55-.97-2.14-3.74-3.23-5.55Z"/><path class="cls-8" d="M344.03,573.94c-1.83,.99-3.63,2.06-5.81,2.1-1.04,.61-1.21,.02-1.18-.85,2.17-1.28,4.5-2.1,7-2.44,.24,.27,.32,.54,.23,.8-.08,.26-.17,.4-.25,.4Z"/><path class="cls-38" d="M325.13,579.35s-.07,.22-.07,.22c-1.87,2.16-4.49,2.13-7.01,2.41-.55-.4-.56-.82-.05-1.26,2.12-1.8,4.81-.6,7.12-1.37Z"/><path class="cls-37" d="M763.17,580.89c-.4,.36-.8,.73-1.2,1.09-1.95-.44-3.91-.89-5.86-1.33,2.59-1.54,4.83-.68,7.06,.24Z"/><path class="cls-43" d="M306.34,584.19c-.41-.35-.82-.7-1.23-1.04,2.32-.36,4.63-.72,6.95-1.09,.35,.22,.47,.44,.37,.67-.11,.24-.22,.35-.33,.35-1.76,1.21-3.76,1.11-5.75,1.1Z"/><path class="cls-40" d="M337.04,575.18c.39,.28,.79,.57,1.18,.85-1.9,1.1-3.9,1.92-6.14,2.01-.01-.37-.02-.74-.04-1.1,1.38-1.39,3.26-1.35,4.99-1.76Z"/><path class="cls-25" d="M772.97,583.39s-.04,.12-.04,.12c2.47-1.1,4.86-.58,7.23,.36-1.15,1.27-2.89,.06-4.12,.98-1.35,.2-2.54,.09-3.06-1.46Z"/><path class="cls-20" d="M292.8,584.8c1.98,.82,4.35-.63,6.19,1.05-1.61,.07-3.21,.14-4.82,.2-1.63-.63-3.59,.52-5.06-.96,1.23-.1,2.46-.19,3.68-.29Z"/><path class="cls-41" d="M575.23,792.98c-.39,0-.77,0-1.16-.01,.15-1.93,.76-3.66,2.17-5.94,.97,2.83-.14,4.37-1.02,5.95Z"/><path class="cls-28" d="M539.27,744.43c-.16,1.26,0,2.63-1.23,3.51,0,0,.11,.04,.11,.04-2.5-2-.24-3.96,.05-5.93,2.01,.05,.99,1.47,1.07,2.39Z"/><path class="cls-6" d="M710.01,611.91c.93,.73,2.53,.68,2.78,2.6-2.41,.42-3.71-1.16-5.1-2.53,.76-.61,1.53-.58,2.32-.07Z"/><path class="cls-29" d="M745.97,576.37c1.82,0,3.56,.26,5.05,1.42,.52,.39,.51,.77-.03,1.14-1.84-.21-3.65-.47-5.03-1.9,0-.22,0-.45,.01-.67Z"/><path class="cls-43" d="M312.09,583.08l-.03-1.03c1.98-.45,3.97-.89,5.95-1.34,.02,.42,.03,.84,.05,1.26-1.95,.57-3.85,1.38-5.96,1.11Z"/><path class="cls-24" d="M539.17,739.02c.03-.92-.14-2.7,.72-2.4,1.82,.64,1.09,2.27,.31,3.57-.66-.12-.72-.76-1.03-1.18Z"/><path class="cls-15" d="M710.01,611.91c-.77,.02-1.54,.05-2.32,.07-.86-.02-1.9-.28-1.89-1.14,.02-1.39,1.18-.73,1.77-.47,.87,.37,1.63,1.02,2.44,1.54Z"/><path class="cls-10" d="M344.03,573.94c0-.4,0-.8,.01-1.19,.91-1.09,2.01-1.2,3.76-.93-1.19,1.6-2.35,2.1-3.77,2.13Z"/><path class="cls-12" d="M663.08,631.64c1.89,.3,2.35,1.34,3.04,2.86-1.91-.22-2.55-1.12-3.04-2.86Z"/><path class="cls-44" d="M742,575.88c-1.35-.08-2.64-.29-3.55-1.52,1.35-.52,2.6-.76,3.51,.69,.36,.17,.48,.35,.37,.54-.11,.19-.22,.29-.34,.29Z"/><path class="cls-16" d="M632.05,651.97c-.68,.27-1.27,.64-1.37,.53-.42-.44-.86-.99-.98-1.56-.12-.57,.51-.8,.92-.52,.49,.32,.82,.87,1.43,1.55Z"/><path class="cls-27" d="M742,575.88c.01-.28,0-.55-.04-.83,1.61-.38,2.77,.57,4.01,1.32,0,.22,0,.45-.01,.67-1.45,.05-2.78-.31-3.96-1.16Z"/><path class="cls-14" d="M731.85,571.03c-.56,.36-.89,.75-1.25,.77-.67,.05-1.31-.27-1.1-1.07,.07-.28,.75-.56,1.13-.54,.35,.02,.68,.44,1.22,.83Z"/><path class="cls-5" d="M539.17,739.02c.34,.39,.69,.78,1.03,1.18-.07,1.46-.02,2.95-.93,4.23-.36-.79-.72-1.59-1.07-2.39,.32-1.01,.65-2.02,.97-3.03Z"/><path class="cls-9" d="M368.92,612.95c.85-.54,1.34-.93,1.89-1.18,.53-.24,1.12,.03,.91,.59-.19,.54-.79,1.01-1.32,1.31-.2,.11-.71-.33-1.48-.72Z"/><path class="cls-20" d="M776.03,584.84c1.14-1.32,2.8-.42,4.12-.98,.59,.06,1.19,.12,1.78,.19-.79,1.12-2.09,.65-3.12,1.03-.93-.08-1.86-.16-2.79-.24Z"/><path class="cls-7" d="M733.28,572.47c1.45-.63,2.72-.56,2.92,.34,.38,1.69-.96,.93-1.68,.71-.39-.12-.69-.56-1.25-1.05Z"/><path class="cls-11" d="M730.02,520.88c-.32,.35-.64,.7-.95,1.05-.76-.09-2.04-.12-1.66-1.08,.61-1.54,1.73-.7,2.61,.03Z"/><path class="cls-35" d="M610.9,731.95h-.35s-.35,0-.35,0c-.49-1.25-1.87-2.34-.69-3.96,.95,1.19,1.54,2.44,1.39,3.96Z"/><path class="cls-23" d="M750.99,578.93c0-.38,.02-.76,.03-1.14,1.38,.29,3.01-.06,3.92,1.6-1.49,1.22-2.65-.32-3.95-.46Z"/></svg>